PathFileType	4	(X/Y/Z)	/Users/itak/Documents/Research/Walk-IL/dataset/trc/00554_00009.trc
DataRate	CameraRate	NumFrames	NumMarkers	Units	OrigDataRate	OrigDataStartFrame	OrigNumFrames
100.000000	100.000000	4	53	mm	100.000000	180	482
Frame#	Time	RPSI			LPSI			L3			STRN			T10			C7			CLAV			RBAK			LBAK			LSHO			LUPA			LAEL			LAOL			LWTS			LWPS			LFRA			LIFD			LHPS			LHTS			RSHO			RUPA			RAEL			RAOL			RWTS			RWPS			RFRA			RIFD			RHTS			RHPS			RBHD			LFHD			RFHD			LBHD			RHIP			RASI			LASI			LKNE			LTHI			LANK			LTIP			LTOE			LMT1			LMT5			LHEE			RKNE			RTHI			RANK			RTIP			RTOE			RMT1			RMT5			RHEE			LHIP			
		X1	Y1	Z1	X2	Y2	Z2	X3	Y3	Z3	X4	Y4	Z4	X5	Y5	Z5	X6	Y6	Z6	X7	Y7	Z7	X8	Y8	Z8	X9	Y9	Z9	X10	Y10	Z10	X11	Y11	Z11	X12	Y12	Z12	X13	Y13	Z13	X14	Y14	Z14	X15	Y15	Z15	X16	Y16	Z16	X17	Y17	Z17	X18	Y18	Z18	X19	Y19	Z19	X20	Y20	Z20	X21	Y21	Z21	X22	Y22	Z22	X23	Y23	Z23	X24	Y24	Z24	X25	Y25	Z25	X26	Y26	Z26	X27	Y27	Z27	X28	Y28	Z28	X29	Y29	Z29	X30	Y30	Z30	X31	Y31	Z31	X32	Y32	Z32	X33	Y33	Z33	X34	Y34	Z34	X35	Y35	Z35	X36	Y36	Z36	X37	Y37	Z37	X38	Y38	Z38	X39	Y39	Z39	X40	Y40	Z40	X41	Y41	Z41	X42	Y42	Z42	X43	Y43	Z43	X44	Y44	Z44	X45	Y45	Z45	X46	Y46	Z46	X47	Y47	Z47	X48	Y48	Z48	X49	Y49	Z49	X50	Y50	Z50	X51	Y51	Z51	X52	Y52	Z52	X53	Y53	Z53	

181	1.8	-750.8521118164062	935.3843383789062	234.7967681884766	-727.7299194335938	946.894287109375	103.9766006469727	-720.863525390625	1043.168701171875	158.2859649658203	-455.5891723632812	1185.06298828125	214.8221740722656	-696.9901123046875	1160.887817382812	146.8590087890625	-608.4998779296875	1423.333618164062	184.0735015869141	-454.6573791503906	1298.18701171875	220.7231140136719	-718.6787719726562	1311.158569335938	237.607421875	-621.2745361328125	1379.860961914062	81.13662719726562	-499.4947509765625	1392.152954101562	39.97113800048828	-473.9719543457031	1275.442260742188	-45.17031860351562	-393.2327880859375	1071.062133789062	-64.53057861328125	-488.3286437988281	1034.517456054688	-67.74491119384766	-262.8970947265625	874.3455810546875	47.12424087524414	-253.5518951416016	840.8911743164062	-32.683349609375	-343.2751159667969	998.0678100585938	-51.78759384155273	-203.6773071289062	720.28759765625	69.65813446044922	-227.5713348388672	789.9312744140625	-12.71596431732178	-209.9133148193359	813.846435546875	49.17663955688477	-604.1532592773438	1378.397705078125	347.4435729980469	-656.8821411132812	1322.345336914062	402.554443359375	-752.5037231445312	1048.164184570312	431.9607849121094	-796.8877563476562	1044.92626953125	386.1433715820312	-674.7306518554688	799.162841796875	437.1496276855469	-745.1145629882812	795.7870483398438	481.4716491699219	-760.9622192382812	993.0608520507812	440.9986572265625	-715.564208984375	630.9828491210938	436.8352355957031	-679.9456787109375	704.2999877929688	458.9406127929688	-749.0606079101562	720.3306274414062	485.5162658691406	-507.0867004394531	1585.394897460938	285.9276733398438	-330.0794067382812	1573.712768554688	177.2804870605469	-369.9794616699219	1573.075927734375	316.3053894042969	-454.9400634765625	1583.110961914062	129.0867462158203	-635.6410522460938	870.0723266601562	368.570068359375	-548.5592041015625	888.4132690429688	314.0390930175781	-524.1611938476562	868.5949096679688	37.4348258972168	-748.2936401367188	439.25830078125	38.48303604125977	-678.46435546875	591.2241821289062	7.984812259674072	-1034.278076171875	46.77609634399414	29.96393013000488	-921.5115356445312	246.164794921875	25.40750122070312	-841.3823852539062	35.33317947387695	123.315559387207	-915.225830078125	43.55711364746094	144.6203155517578	-912.8516845703125	32.43513107299805	37.43679428100586	-1112.372314453125	70.47911071777344	68.39013671875	-365.2477416992188	521.8101196289062	381.7599792480469	-542.94873046875	756.042236328125	390.5676574707031	-347.3819580078125	35.45273971557617	337.5096130371094	-322.4964904785156	376.4795227050781	369.3305358886719	-140.238525390625	107.6851501464844	336.8342895507812	-190.5350036621094	88.61426544189453	284.4593811035156	-228.0727996826172	70.056884765625	380.28759765625	-388.6549987792969	18.05307388305664	271.38623046875	-606.2774658203125	858.7496948242188	-18.97024917602539	
182	1.81	-736.8613891601562	934.8295288085938	239.8270568847656	-714.9486694335938	945.4642944335938	108.6667785644531	-706.3413696289062	1042.0302734375	162.3195343017578	-441.0338134765625	1183.324340820312	217.7148132324219	-682.9094848632812	1159.982788085938	150.5879058837891	-593.6788940429688	1422.075561523438	187.6651000976562	-439.9742736816406	1296.500854492188	223.8214721679688	-703.7781982421875	1309.955200195312	241.1570739746094	-606.6907348632812	1378.941284179688	84.41513824462891	-484.6513671875	1390.942138671875	43.4512939453125	-459.3356018066406	1273.997436523438	-41.35067749023438	-379.3424682617188	1069.879760742188	-60.80487823486328	-474.4212951660156	1033.062255859375	-64.78352355957031	-248.7394866943359	875.524658203125	53.60955810546875	-238.2995910644531	841.4005126953125	-25.77974128723145	-329.1193542480469	997.4490356445312	-47.19911575317383	-188.1278991699219	722.3236083984375	78.14194488525391	-212.0027465820312	790.9201049804688	-5.059830665588379	-195.2227935791016	815.5964965820312	56.76675796508789	-589.015869140625	1376.803344726562	351.0310668945312	-642.0039672851562	1320.942260742188	406.1619567871094	-739.7164916992188	1047.25732421875	434.342529296875	-783.7816162109375	1044.371215820312	388.22314453125	-663.582275390625	797.8187255859375	440.298828125	-734.5677490234375	794.8433837890625	483.6228942871094	-748.650634765625	992.253662109375	443.2933959960938	-705.5516967773438	629.87890625	439.1249389648438	-669.6275024414062	702.8999633789062	461.7021789550781	-739.0104370117188	719.329833984375	487.5162658691406	-492.2124328613281	1583.96240234375	289.1144714355469	-315.3451538085938	1572.26611328125	180.2764129638672	-355.0027770996094	1571.670166015625	319.3812561035156	-440.2422790527344	1581.635009765625	132.2063598632812	-620.0308837890625	869.5379028320312	372.2742004394531	-533.532958984375	887.8125	316.66015625	-512.1461181640625	866.9873046875	40.18478393554688	-738.2434692382812	438.35888671875	40.78330993652344	-667.5380859375	590.1301879882812	10.72210121154785	-1032.903686523438	51.1509895324707	29.49182319641113	-915.381103515625	248.5827178955078	26.3788013458252	-841.3111572265625	35.30027770996094	123.3009414672852	-914.4962158203125	44.37569427490234	144.4302215576172	-912.3876953125	32.38152313232422	37.46359252929688	-1110.158935546875	77.72843933105469	67.85688018798828	-351.5126342773438	519.4496459960938	382.577392578125	-527.0977172851562	755.3693237304688	393.14990234375	-343.0726013183594	34.06446075439453	337.5010070800781	-311.1301574707031	373.4551086425781	369.3350524902344	-134.20556640625	101.3507537841797	334.401611328125	-185.3948059082031	83.32057952880859	282.4736328125	-222.3008728027344	65.50100708007812	378.5686950683594	-385.3683166503906	17.29022789001465	271.7256469726562	-594.9562377929688	857.2817993164062	-15.6376428604126	
183	1.82	-722.6124877929688	934.709716796875	244.7718963623047	-701.7589111328125	944.3170166015625	113.2813110351562	-691.4340209960938	1041.198974609375	166.3098907470703	-426.150634765625	1181.940673828125	220.7489166259766	-668.5426025390625	1159.508056640625	154.4911651611328	-578.5316162109375	1421.184936523438	191.5046997070312	-424.95703125	1295.163208007812	227.0250549316406	-688.57470703125	1309.141845703125	245.0085296630859	-591.8740844726562	1378.392333984375	87.95938110351562	-469.6349487304688	1390.121215820312	47.07600402832031	-444.7630310058594	1272.955200195312	-37.481689453125	-365.8732604980469	1069.007080078125	-57.18251419067383	-460.9947814941406	1032.029541015625	-61.90633010864258	-235.1589660644531	876.9482421875	59.84011459350586	-223.69482421875	842.1613159179688	-19.11802101135254	-315.4515686035156	997.1351928710938	-42.8052864074707	-173.2793273925781	724.6112060546875	86.36053466796875	-197.0996398925781	792.159912109375	2.327810049057007	-181.1700744628906	817.5804443359375	64.06838226318359	-573.4627685546875	1375.482788085938	354.8525085449219	-626.6277465820312	1319.759399414062	410.0037231445312	-726.1713256835938	1046.499267578125	437.0157470703125	-769.9891967773438	1043.9677734375	390.6543579101562	-651.6939697265625	796.6206665039062	443.4439086914062	-723.1722412109375	794.0645751953125	485.9410705566406	-735.5559692382812	991.5973510742188	445.8661499023438	-694.7056274414062	628.9439086914062	441.4670715332031	-658.4794921875	701.6859130859375	464.5030212402344	-728.0552368164062	718.4635009765625	489.650146484375	-476.8916931152344	1582.930786132812	292.4810791015625	-300.2624816894531	1571.1083984375	183.3338470458984	-339.5788879394531	1570.630493164062	322.5077819824219	-425.2271728515625	1580.462890625	135.4579925537109	-604.2999877929688	869.4203491210938	376.004150390625	-518.3424682617188	887.6370849609375	319.4457092285156	-499.6609497070312	865.6105346679688	43.15707397460938	-726.6154174804688	437.1196899414062	43.26950454711914	-655.420166015625	588.9979858398438	13.75308132171631	-1031.07373046875	56.30238342285156	28.98979377746582	-908.1204223632812	251.2425537109375	27.42335510253906	-841.3292236328125	35.28938293457031	123.2406158447266	-913.6303100585938	45.37533187866211	144.2333984375	-911.8472900390625	32.40719223022461	37.50349426269531	-1107.101318359375	86.15252685546875	67.3143310546875	-337.8101501464844	517.1968383789062	383.2215270996094	-511.0014038085938	754.93896484375	395.4888305664062	-340.4609069824219	33.09114837646484	337.2060546875	-300.2365112304688	370.4814453125	369.1162719726562	-129.6466979980469	94.5687255859375	331.7848510742188	-181.7323455810547	77.7625732421875	280.2647399902344	-218.1436004638672	60.91294479370117	376.5625610351562	-383.7048034667969	16.88766288757324	271.8162841796875	-583.0187377929688	855.940185546875	-12.05823802947998	
184	1.83	-708.1857299804688	935.0162963867188	249.5638885498047	-688.1976928710938	943.4794921875	117.7615509033203	-676.2453002929688	1040.739013671875	170.2327270507812	-410.9657897949219	1180.92041015625	223.9154510498047	-653.9044189453125	1159.4912109375	158.5409545898438	-563.0435791015625	1420.680053710938	195.5869293212891	-409.6007995605469	1294.182739257812	230.3212280273438	-673.0751953125	1308.757568359375	249.1360778808594	-576.8193359375	1378.236694335938	91.77336120605469	-454.4362182617188	1389.708862304688	50.82849884033203	-430.2777709960938	1272.363891601562	-33.619873046875	-352.8782348632812	1068.481323242188	-53.70298004150391	-448.1038818359375	1031.47314453125	-59.14951705932617	-222.2065582275391	878.61962890625	65.76473236083984	-209.7977294921875	843.1809692382812	-12.75893592834473	-302.3204040527344	997.1607666015625	-38.65002822875977	-159.1758575439453	727.1583251953125	94.24626159667969	-182.9109497070312	793.6520385742188	9.385791778564453	-167.7909393310547	819.8077392578125	71.01433563232422	-557.5035400390625	1374.450927734375	358.8948059082031	-610.7522583007812	1318.801513671875	414.0569152832031	-711.8375244140625	1045.891845703125	440	-755.489990234375	1043.712280273438	393.4634094238281	-639.0101318359375	795.5743408203125	446.5570373535156	-710.8340454101562	793.4403076171875	488.468505859375	-721.6380615234375	991.0899047851562	448.7415771484375	-683.006103515625	628.1782836914062	443.891845703125	-646.45263671875	700.6533813476562	467.3341369628906	-716.1078491210938	717.7433471679688	491.9710998535156	-461.1223754882812	1582.2939453125	296.0444641113281	-284.82275390625	1570.247680664062	186.4722290039062	-323.7175903320312	1569.947875976562	325.7047119140625	-409.8927917480469	1579.613647460938	138.8647003173828	-588.5716552734375	869.7390747070312	379.74462890625	-503.1045837402344	887.9081420898438	322.4385375976562	-486.7041625976562	864.489990234375	46.38418197631836	-713.2173461914062	435.4520874023438	45.90579605102539	-642.004150390625	587.7978515625	17.06450080871582	-1028.608642578125	62.35877990722656	28.45538902282715	-899.5120239257812	254.1654815673828	28.51913261413574	-841.470703125	35.27910995483398	123.1139602661133	-912.59912109375	46.56876754760742	144.0022888183594	-911.1956176757812	32.57670211791992	37.53501892089844	-1102.908203125	95.90774536132812	66.74004364013672	-324.1700134277344	515.1788940429688	383.74755859375	-494.8057556152344	754.7852172851562	397.6399230957031	-339.0375366210938	32.56047058105469	336.7445983886719	-289.7189025878906	367.7327575683594	368.7698059082031	-126.1887512207031	87.74469757080078	329.2144775390625	-179.1576232910156	72.28176879882812	278.0603942871094	-215.2135009765625	56.61309432983398	374.5116271972656	-383.1123352050781	16.8486328125	271.7692565917969	-570.44287109375	854.7470092773438	-8.243307113647461	
